<svg width="18" height="18" viewBox="0 0 18 18" fill="none" xmlns="http://www.w3.org/2000/svg">
<path opacity="0.4" d="M14.9944 14.215H10.7237C10.307 14.215 9.96815 14.5592 9.96815 14.9825C9.96815 15.4066 10.307 15.75 10.7237 15.75H14.9944C15.4111 15.75 15.75 15.4066 15.75 14.9825C15.75 14.5592 15.4111 14.215 14.9944 14.215Z" fill="white"/>
<path d="M7.73177 5.17789L11.7787 8.44796C11.8763 8.52616 11.893 8.66967 11.8168 8.76964L7.01906 15.0211C6.71746 15.4073 6.27301 15.6258 5.79681 15.6339L3.17772 15.6661C3.03804 15.6677 2.91581 15.571 2.88406 15.4323L2.28882 12.8443C2.18564 12.3687 2.28882 11.8769 2.59041 11.4979L7.41192 5.21659C7.4897 5.11581 7.63335 5.09807 7.73177 5.17789Z" fill="white"/>
<path opacity="0.4" d="M13.5904 6.49908L12.8103 7.473C12.7317 7.57217 12.5904 7.58829 12.4928 7.50928C11.5444 6.74175 9.11575 4.77213 8.44193 4.22632C8.34352 4.14569 8.33003 4.00219 8.40939 3.90221L9.16179 2.96779C9.84434 2.089 11.0348 2.00838 11.9952 2.7743L13.0984 3.65309C13.5508 4.00783 13.8523 4.47544 13.9555 4.96724C14.0746 5.50822 13.9476 6.03953 13.5904 6.49908Z" fill="white"/>
</svg>
