<svg width="20" height="20" viewBox="0 0 20 20" fill="none" xmlns="http://www.w3.org/2000/svg">
<path d="M10.0003 1.66669C7.81707 1.67228 5.72291 2.53309 4.16685 4.06455V2.50002C4.16685 2.27901 4.07905 2.06704 3.92277 1.91076C3.76649 1.75448 3.55453 1.66669 3.33352 1.66669C3.1125 1.66669 2.90054 1.75448 2.74426 1.91076C2.58798 2.06704 2.50018 2.27901 2.50018 2.50002V6.25002C2.50012 6.35947 2.52163 6.46786 2.56349 6.569C2.60534 6.67013 2.66673 6.76202 2.74412 6.83942C2.82151 6.91681 2.91341 6.97819 3.01454 7.02005C3.11567 7.06191 3.22406 7.08342 3.33352 7.08335H7.08352C7.30453 7.08335 7.51649 6.99556 7.67277 6.83928C7.82905 6.683 7.91685 6.47103 7.91685 6.25002C7.91685 6.02901 7.82905 5.81705 7.67277 5.66076C7.51649 5.50448 7.30453 5.41669 7.08352 5.41669H5.18232C6.09761 4.44785 7.28288 3.77639 8.58443 3.48937C9.88597 3.20235 11.2437 3.31303 12.4816 3.80704C13.7195 4.30106 14.7804 5.15562 15.5267 6.25989C16.273 7.36417 16.6703 8.66721 16.667 10C16.667 10.221 16.7548 10.433 16.9111 10.5893C17.0674 10.7456 17.2793 10.8334 17.5003 10.8334C17.7213 10.8334 17.9333 10.7456 18.0896 10.5893C18.2459 10.433 18.3337 10.221 18.3337 10C18.3311 7.79068 17.4523 5.67257 15.89 4.11033C14.3278 2.54809 12.2097 1.66928 10.0003 1.66669ZM16.6575 12.9167H12.9075C12.6865 12.9167 12.4745 13.0045 12.3182 13.1608C12.162 13.317 12.0742 13.529 12.0742 13.75C12.0742 13.971 12.162 14.183 12.3182 14.3393C12.4745 14.4956 12.6865 14.5834 12.9075 14.5834H14.8184C13.9031 15.5522 12.7178 16.2237 11.4163 16.5107C10.1147 16.7977 8.75698 16.687 7.5191 16.193C6.28121 15.699 5.22032 14.8444 4.47402 13.7402C3.72771 12.6359 3.33042 11.3328 3.33367 10C3.33367 9.77901 3.24587 9.56705 3.08959 9.41077C2.93331 9.25449 2.72135 9.16669 2.50033 9.16669C2.27932 9.16669 2.06736 9.25449 1.91108 9.41077C1.7548 9.56705 1.667 9.77901 1.667 10C1.66463 11.6411 2.14754 13.2462 3.05498 14.6135C3.96243 15.9808 5.25391 17.0493 6.767 17.6846C8.28009 18.3198 9.94724 18.4935 11.5588 18.1838C13.1703 17.8741 14.6543 17.0948 15.8242 15.9439V17.5C15.8242 17.721 15.912 17.933 16.0682 18.0893C16.2245 18.2456 16.4365 18.3334 16.6575 18.3334C16.8785 18.3334 17.0905 18.2456 17.2467 18.0893C17.403 17.933 17.4908 17.721 17.4908 17.5V13.75C17.4909 13.6406 17.4694 13.5322 17.4275 13.431C17.3857 13.3299 17.3243 13.238 17.2469 13.1606C17.1695 13.0832 17.0776 13.0219 16.9765 12.98C16.8753 12.9381 16.7669 12.9166 16.6575 12.9167Z" fill="#585CC6"/>
</svg>
