<svg width="1689" height="872" viewBox="0 0 1689 872" fill="none" xmlns="http://www.w3.org/2000/svg">
    <path opacity="0.07"
          d="M615.5 42.7271L619.771 83.0012L615.5 42.7271ZM878.5 446.227L844.483 424.247L878.5 446.227ZM928 232.227L929.597 272.696L928 232.227ZM75.8368 794.671C209.04 445.733 293.426 274.509 370.209 186.473C407.199 144.063 441.638 122.027 478.891 108.59C517.775 94.564 561.274 89.2055 619.771 83.0012L611.229 2.453C554.226 8.4987 500.975 14.5153 451.406 32.3955C400.205 50.8643 354.489 81.2667 309.166 133.231C221.324 233.946 132.46 419.221 0.163176 765.783L75.8368 794.671ZM619.771 83.0012C696.583 74.8545 797.402 99.6224 855.111 155.313C882.798 182.032 900.287 215.406 902.065 256.924C903.878 299.249 889.523 354.544 844.483 424.247L912.517 468.207C963.538 389.245 985.734 317.5 982.991 253.458C980.214 188.608 952.04 136.287 911.358 97.0274C832.329 20.7621 705.588 -7.55476 611.229 2.453L619.771 83.0012ZM844.483 424.247C801.727 490.418 763.141 501.118 741.57 498.685C718.422 496.075 695.332 476.624 685.982 444.808C677.092 414.556 682.272 376.256 714.335 343.239C747.108 309.492 812.138 277.332 929.597 272.696L926.403 191.759C796.862 196.872 708.579 232.9 656.227 286.809C603.165 341.448 591.408 410.273 608.268 467.646C624.668 523.455 670.015 572.129 732.493 579.175C796.546 586.399 860.773 548.286 912.517 468.207L844.483 424.247ZM929.597 272.696C1244.48 260.266 1401.24 316.116 1485.75 412.034C1572.4 510.376 1593.93 661.173 1607.59 871.353L1688.41 866.101C1675.07 660.782 1654.28 480.788 1546.52 358.485C1436.63 233.758 1246.89 179.108 926.403 191.759L929.597 272.696Z"
          fill="white"/>
</svg>
