<svg width="32" height="32" viewBox="0 0 32 32" fill="none" xmlns="http://www.w3.org/2000/svg">
<path opacity="0.4" d="M21.7865 2.6664H10.2265C5.7065 2.6664 2.6665 5.83973 2.6665 10.5597V21.4531C2.6665 26.1597 5.7065 29.3331 10.2265 29.3331H21.7865C26.3065 29.3331 29.3332 26.1597 29.3332 21.4531V10.5597C29.3332 5.83973 26.3065 2.6664 21.7865 2.6664Z" fill="#EB5757"/>
<path d="M20.0206 18.3604L17.6486 15.9897L20.0193 13.6191C20.4753 13.1644 20.4753 12.4244 20.0193 11.9697C19.5633 11.5111 18.8259 11.5124 18.3699 11.9684L15.9979 14.3391L13.6259 11.9657C13.1699 11.5097 12.4313 11.5124 11.9753 11.9657C11.5206 12.4217 11.5206 13.1617 11.9753 13.6164L14.3486 15.9897L11.9806 18.3564C11.5246 18.8124 11.5246 19.5524 11.9806 20.0057C12.2086 20.2351 12.5059 20.3484 12.8046 20.3484C13.1046 20.3484 13.4019 20.2351 13.6299 20.0071L15.9979 17.6391L18.3713 20.0111C18.5993 20.2391 18.8966 20.3524 19.1953 20.3524C19.4939 20.3524 19.7926 20.2377 20.0206 20.0111C20.4766 19.5551 20.4766 18.8164 20.0206 18.3604Z" fill="#EB5757"/>
</svg>
